<svg width="55" height="20" viewBox="0 0 55 20" fill="none" xmlns="http://www.w3.org/2000/svg">
<rect width="55" height="20" fill="#1E1E1E"/>
<path d="M54.5761 0.835256L53.0764 5.85066L53.0764 3.69249L50.2605 9.0879L49.7389 7.58991L49.4657 8.69694L49.0833 7.99032L47.4169 9.80397L47.0618 8.39075L45.8325 11.0759L45.4227 10.4164L45.2315 10.8875L44.9037 10.4164L44.0296 13.1015L43.7291 12.6069L42.8003 13.9494L42.5818 11.9003L41.5983 13.1015L41.0793 11.2879L40.2871 15.292L38.8071 15.292L38.8071 3.69249L36.2168 8.69694L35.4246 10.8875L34.6051 8.69694L33.0754 11.9003L31.8188 8.53209L29.4422 16.2342L28.7046 14.3028L27.8851 16.4462L27.6665 15.0565L26.6831 17.1763L25.0714 7.58991L22.1211 12.7953L21.1377 10.2515L19.526 13.4077L19.1982 11.7354L18.2421 13.5726L16.8216 9.08789L16.5484 10.0631L16.1387 9.21515L15.7562 11.0759L15.5377 10.2515L15.1279 12.0416L14.9094 11.0759L14.7182 11.7354L14.4723 11.0759L13.3523 15.0565L10.8391 10.8875L8.08008 15.8338L4.85664 6.95399L2.34346 14.3028L2.04297 13.4077L1.68785 14.4912L1.05955 12.6069L0.636589 17.6477" stroke="#DA5F67" stroke-width="0.5"/>
</svg>
