<svg width="55" height="20" viewBox="0 0 55 20" fill="none" xmlns="http://www.w3.org/2000/svg">
<rect width="55" height="20" fill="#1E1E1E"/>
<path d="M0.636597 18.6347L2.13633 13.3248V15.6097L4.9522 9.89754L5.47387 11.4835L5.74704 10.3115L6.12948 11.0595L7.79583 9.13944L8.15096 10.6356L9.38024 7.79285L9.79 8.49106L9.98122 7.99234L10.309 8.49106L11.1832 5.64831L11.4837 6.17198L12.4124 4.7506L12.631 6.92006L13.6144 5.64831L14.1334 7.56841L14.9256 3.32921H16.4056V15.6097L18.9959 10.3115L19.7881 7.99234L20.6076 10.3115L22.1374 6.92006L23.394 10.486L25.7706 2.33174L26.5081 4.37655L27.3277 2.10731L27.5462 3.57857L28.5296 1.33428L30.1413 11.4835L33.0916 5.97247L34.075 8.66561L35.6867 5.32412L36.0145 7.09461L36.9706 5.14957L38.3911 9.89754L38.6643 8.8651L39.0741 9.76282L39.4565 7.79285L39.6751 8.66561L40.0848 6.77044L40.3034 7.79285L40.4946 7.09461L40.7404 7.79285L41.8604 3.57857L44.3736 7.99234L47.1327 2.75567L50.3561 12.1567L52.8693 4.37655L53.1698 5.32412L53.5249 4.17705L54.1532 6.17198L54.5761 0.835266" stroke="#97DC6F" stroke-width="0.5"/>
</svg>
