<?xml version="1.0" encoding="utf-8"?>
<!-- Generator: Adobe Illustrator 26.3.1, SVG Export Plug-In . SVG Version: 6.00 Build 0)  -->
<svg version="1.1" id="Layer_1" xmlns="http://www.w3.org/2000/svg" xmlns:xlink="http://www.w3.org/1999/xlink" x="0px" y="0px"
	 viewBox="0 0 203 53" style="enableBackground:new 0 0 203 53;" xml:space="preserve">
<style type="text/css">
	.st0{enableBackground:new    ;}
	.st1{fill:#FFFFFF;}
	.st2{fill-rule:evenodd;clip-rule:evenodd;fill:#FFFFFF;}
	.st3{opacity:0.5;}
	.st4{filter:url(#Adobe_OpacityMaskFilter);}
	.st5{mask:url(#mask-2_00000051363872075359496650000013620596801847178897_);}
	.st6{filter:url(#Adobe_OpacityMaskFilter_00000083786345217619713280000006647091974646596740_);}
	.st7{mask:url(#mask-4_00000058553901316769456000000016978940177319449507_);}
	.st8{filter:url(#Adobe_OpacityMaskFilter_00000133491510317531274010000013668813159205950598_);}
	.st9{mask:url(#mask-6_00000015316457165158716930000009780315074024890555_);}
	.st10{filter:url(#Adobe_OpacityMaskFilter_00000026843881332136540420000001422699101930272649_);}
	.st11{mask:url(#mask-8_00000001660506822040119700000006057247232860673430_);}
	.st12{filter:url(#Adobe_OpacityMaskFilter_00000028322150363182104490000018324289797214443907_);}
	.st13{mask:url(#mask-10_00000101068034451968392250000012587369860936290707_);}
</style>
<g id="Symbols">
	<g id="footer" transform="translate(-79.000000, -91.000000)">
		<g id="Logo-HistoryLockup" transform="translate(79.000000, 91.906881)">
			<g id="Group-4">
				<g class="st0">
					<path class="st1" d="M11.1,3.3h1.5v13.1h-1.5v-5.8H3.4v5.8H1.8V3.3h1.5v6h7.7V3.3z"/>
				</g>
				<g>
				</g>
				<g class="st0">
					<path class="st1" d="M23.8,4.6h-2.9v10.5h2.9v1.3h-7.4v-1.3h2.9V4.6h-2.9V3.3h7.4V4.6z"/>
				</g>
				<g>
				</g>
				<g class="st0">
					<path class="st1" d="M31.9,16.6c-4.6,0-5.9-2-5.9-5.1h1.5c0,3.1,1.7,3.8,4.4,3.8c2.2,0,3.5-0.5,3.5-2.1c0-2-2.3-2.4-4.4-3
						c-2.6-0.8-4.5-1.5-4.5-3.8c0-2,1.4-3.2,4.7-3.2c3.9,0,5.2,2.4,5.2,4.5h-1.5c0-2.2-1.7-3.2-3.7-3.2c-1.8,0-3.1,0.5-3.1,1.9
						c0,1.4,1.2,1.9,3.3,2.5c2.6,0.8,5.5,1.5,5.5,4.2C36.9,15,35.8,16.6,31.9,16.6z"/>
				</g>
				<g>
				</g>
				<g class="st0">
					<path class="st1" d="M48.3,3.3v1.3h-4.6v11.8h-1.5V4.6h-4.6V3.3H48.3z"/>
				</g>
				<g>
				</g>
				<g class="st0">
					<path class="st1" d="M54.5,3.1c3.8,0,6.1,2.9,6.1,6.7c0,3.8-2.3,6.8-6.1,6.8c-3.9,0-6.1-2.9-6.1-6.8C48.4,6,50.7,3.1,54.5,3.1z
						 M54.5,15.3c3.1,0,4.6-2.3,4.6-5.5c0-3.1-1.5-5.4-4.6-5.4c-3.1,0-4.6,2.3-4.6,5.4C49.9,12.9,51.4,15.3,54.5,15.3z"/>
				</g>
				<g>
				</g>
				<g class="st0">
					<path class="st1" d="M64.1,16.4V3.3h4.4c3.1,0,5.1,0.7,5.1,3.7c0,2-1,2.8-2.4,3.1v0.4h1.6c0.7,0,1,0.3,1,1v4.9h-1.5v-5.3h-6.6
						v5.3H64.1z M65.6,9.8h2.8c2.2,0,3.6-0.2,3.6-2.6c0-2.4-1.4-2.6-3.6-2.6h-2.8V9.8z"/>
				</g>
				<g>
				</g>
				<g class="st0">
					<path class="st1" d="M83.8,3.3h1.6l-4.7,8.2v4.9h-1.5v-4.9l-4.7-8.2H76l3.7,6.4v1.1h0.4V9.7L83.8,3.3z"/>
				</g>
				<g class="st0">
					<path class="st1" d="M116.3,16.4V3.3h3.5c3.2,0,5,0.6,5,3.2c0,1.9-1.3,2.7-2.6,2.8v0.4c2,0,3.6,0.9,3.6,3.2
						c0,2.6-2,3.5-5.2,3.5H116.3z M117.9,8.9h2c2.1,0,3.5-0.3,3.5-2.2c0-2-1.3-2.2-3.5-2.2h-2V8.9z M117.9,15.1h2.9
						c2.2,0,3.6-0.4,3.6-2.4c0-1.9-1.4-2.4-3.6-2.4h-2.9V15.1z"/>
				</g>
				<g>
				</g>
				<g class="st0">
					<path class="st1" d="M135.5,4.6h-2.9v10.5h2.9v1.3h-7.4v-1.3h2.9V4.6h-2.9V3.3h7.4V4.6z"/>
				</g>
				<g>
				</g>
				<g class="st0">
					<path class="st1" d="M149.8,3.3v1.3h-4.6v11.8h-1.5V4.6h-4.6V3.3H149.8z"/>
				</g>
				<g>
				</g>
				<g class="st0">
					<path class="st1" d="M156,3.1c3.3,0,5.5,2,5.9,5.2h-1.5c-0.3-2.5-1.8-3.9-4.4-3.9c-3.1,0-4.6,2.3-4.6,5.4
						c0,3.2,1.6,5.5,4.6,5.5c2.6,0,4.1-1.5,4.4-4h1.5c-0.4,3.3-2.6,5.3-5.9,5.3c-3.9,0-6.1-2.9-6.1-6.8C149.9,6,152.2,3.1,156,3.1z"
						/>
				</g>
				<g>
				</g>
				<g class="st0">
					<path class="st1" d="M171.3,3.1c3.8,0,6.1,2.9,6.1,6.7c0,3.8-2.3,6.8-6.1,6.8c-3.9,0-6.1-2.9-6.1-6.8
						C165.2,6,167.5,3.1,171.3,3.1z M171.3,15.3c3.1,0,4.6-2.3,4.6-5.5c0-3.1-1.5-5.4-4.6-5.4c-3.1,0-4.6,2.3-4.6,5.4
						C166.7,12.9,168.2,15.3,171.3,15.3z"/>
				</g>
				<g>
				</g>
				<g class="st0">
					<path class="st1" d="M186,4.6h-2.9v10.5h2.9v1.3h-7.4v-1.3h2.9V4.6h-2.9V3.3h7.4V4.6z"/>
				</g>
				<g>
				</g>
				<g class="st0">
					<path class="st1" d="M189.8,16.4V3.3h3.1l6.5,12.7h0.4l-0.2-1.1V3.3h1.5v13.1H198l-6.5-12.7h-0.4l0.2,1.1v11.6H189.8z"/>
				</g>
				<g id="Fill-2">
					<path class="st2" d="M104.2,4.7c0.1-0.1,0.3-0.1,0.5-0.1h2.8l0.3-1.7h-2.6c-0.8,0-1.4,0.2-2,0.7c-0.5,0.5-0.8,1.1-1,1.8
						l-0.6,3.6h-0.1h-3.4L98,10.5h3.3h0.1l-1,5.8c0,0.2-0.1,0.3-0.2,0.4c-0.1,0.1-0.2,0.1-0.4,0.1h-2.9l-0.3,1.7h2.9
						c0.7,0,1.3-0.2,1.8-0.6c0.5-0.4,0.8-1,0.9-1.6l1-5.7h3.4l0.3-1.6h-3.4l0.7-3.7C104,4.9,104.1,4.8,104.2,4.7"/>
				</g>
				<g id="Fill-3">
					<path class="st2" d="M94.2,9.9L94,11.1c-0.2,0.9-0.4,1.5-0.8,1.9c-0.4,0.4-0.9,0.6-1.6,0.6h-0.1c-1.2,0-1.7-0.5-1.7-1.6
						c0-0.3,0-0.5,0.1-0.8l0.2-1.2c0.1-0.8,0.4-1.4,0.8-1.8c0.4-0.4,0.9-0.5,1.7-0.5h0.1c1.2,0,1.7,0.5,1.7,1.6
						C94.2,9.5,94.2,9.7,94.2,9.9 M95.1,7c-0.6-0.6-1.4-0.8-2.5-0.8h-0.1c-1.2,0-2.1,0.3-2.8,0.9c-0.7,0.6-1.2,1.5-1.4,2.8l-0.2,1.2
						C88,11.5,88,11.8,88,12c0,0.9,0.3,1.7,0.9,2.2c0.6,0.5,1.4,0.8,2.4,0.8h0.1c1.2,0,2.1-0.3,2.8-0.9c0.7-0.6,1.2-1.6,1.4-2.8
						l0.2-1.2C95.9,9.7,96,9.5,96,9.2C96,8.3,95.7,7.5,95.1,7"/>
				</g>
			</g>
			<g id="Group-34" transform="translate(3.000000, 30.093119)" class="st3">
				<g id="Group-5" transform="translate(-0.000000, 6.296900)">
					<g id="Fill-1">
						<path class="st2" d="M4.3,9.1c0.6,0,1.1-0.2,1.5-0.5c0.4-0.4,0.6-0.9,0.8-1.7l0.2-1.1c0-0.2,0.1-0.4,0.1-0.6
							c0-0.5-0.1-0.9-0.4-1.2C6.1,3.7,5.8,3.6,5.3,3.6H5.2c-0.6,0-1.1,0.2-1.4,0.6C3.4,4.6,3.1,5.2,3,5.9l-0.2,1
							c0,0.2-0.1,0.5-0.1,0.7c0,0.5,0.1,0.9,0.4,1.1C3.4,9,3.8,9.1,4.3,9.1L4.3,9.1z M4.8,10.8c-1.2,0-2-0.5-2.3-1.5H2.4l-0.2,1.3
							H0.5L2.6-1.6h1.7L3.5,3.3h0.2c0.3-0.5,0.6-0.8,1-1C5.1,2,5.5,1.9,6.1,1.9h0C7,1.9,7.6,2.2,8,2.7C8.5,3.3,8.7,4,8.7,4.8
							c0,0.3,0,0.6-0.1,1L8.4,7C8.2,8.3,7.8,9.2,7.2,9.8C6.6,10.5,5.8,10.8,4.8,10.8L4.8,10.8z"/>
					</g>
					<g id="Fill-3_00000061447563425938280320000006314859898165314993_">
						<path class="st2" d="M18.1,2.1h1.9L15,11.6c-0.4,0.7-0.8,1.3-1.4,1.7c-0.6,0.4-1.3,0.6-2.1,0.6h-1.3l0.3-1.7h1.8
							c0.2,0,0.4,0,0.5-0.1c0.1-0.1,0.3-0.3,0.4-0.5l0.6-1h-0.7l-1.3-8.5h1.7l0.9,6.9h0.2L18.1,2.1z"/>
					</g>
				</g>
				<g id="Group-33" transform="translate(27.241800, 0.000000)">
					<g id="Group-8">
						<g id="Clip-7">
						</g>
						<defs>
							<filter id="Adobe_OpacityMaskFilter" filterUnits="userSpaceOnUse" x="0.5" y="-1.6" width="14.1" height="19.2">
								<feColorMatrix  type="matrix" values="1 0 0 0 0  0 1 0 0 0  0 0 1 0 0  0 0 0 1 0"/>
							</filter>
						</defs>
						
							<mask maskUnits="userSpaceOnUse" x="0.5" y="-1.6" width="14.1" height="19.2" id="mask-2_00000051363872075359496650000013620596801847178897_">
							<g class="st4">
								<polygon id="path-1_00000142895232731495552970000016716135925601856955_" class="st2" points="0.5,-1.6 14.6,-1.6 
									14.6,17.6 0.5,17.6 								"/>
							</g>
						</mask>
						<g id="Fill-6" class="st5">
							<path class="st2" d="M13.5-1.2v4l-5-4.4C10.3-1.4,12-1.2,13.5-1.2L13.5-1.2z M0.5,12.7c1.6,1.8,3.4,3.4,5.5,4.9l-5.5-0.7
								V12.7z M11.3,13.2c0-6.1-10.8-2.7-10.8-9.9c0-2.8,2.7-4.8,6.3-4.9c-2,0.7-3.1,2-3.1,3.7c0,5.7,10.9,2.1,10.9,9.8
								c0,3.4-2.7,5.7-6.7,5.8C10.2,16.8,11.3,15.2,11.3,13.2L11.3,13.2z"/>
						</g>
					</g>
					<g id="Fill-9">
						<path class="st2" d="M32.9-1.4c1.3,0.1,2.5,0.1,3.8,0c0,6.2,0,12.4,0,18.7h-3.8V-1.4z M20.9-1.4c1.8,4.5,3.7,9.1,5.8,13.6
							l4.7-9.7c-1.4,4.6-2.9,9-4,13.3h-3.2L17-1.4C18.3-1.3,19.6-1.3,20.9-1.4L20.9-1.4z M18.9,17.3h-2.4l1-13.5
							C18,9.1,18.5,13.6,18.9,17.3L18.9,17.3z"/>
					</g>
					<g id="Fill-11">
						<path class="st2" d="M52,17.3l-2.3-6.7l-5.4-0.7L49,8.8L45.5-1.4c1.3,0.1,2.6,0.1,3.9,0L56,17.3H52z M45,2.2
							c-1.9,7.8-2.9,12.6-3.1,15.1h-3.1L45,2.2z"/>
					</g>
					<g id="Group-15" transform="translate(56.455500, 0.000000)">
						<g id="Clip-14">
						</g>
						<defs>
							
								<filter id="Adobe_OpacityMaskFilter_00000163778445290632587990000015308355604109809292_" filterUnits="userSpaceOnUse" x="0.5" y="-1.6" width="14.1" height="19.2">
								<feColorMatrix  type="matrix" values="1 0 0 0 0  0 1 0 0 0  0 0 1 0 0  0 0 0 1 0"/>
							</filter>
						</defs>
						
							<mask maskUnits="userSpaceOnUse" x="0.5" y="-1.6" width="14.1" height="19.2" id="mask-4_00000058553901316769456000000016978940177319449507_">
							<g style="filter:url(#Adobe_OpacityMaskFilter_00000163778445290632587990000015308355604109809292_);">
								<polygon id="path-3_00000163044363325680246450000007145633974985089686_" class="st2" points="0.5,-1.6 14.6,-1.6 
									14.6,17.6 0.5,17.6 								"/>
							</g>
						</mask>
						<g id="Fill-13" class="st7">
							<path class="st2" d="M13.5-1.2v4l-5-4.4C10.3-1.4,12-1.2,13.5-1.2L13.5-1.2z M0.5,12.7c1.6,1.8,3.4,3.4,5.5,4.9l-5.5-0.7
								V12.7z M11.3,13.2c0-6.1-10.8-2.7-10.8-9.9c0-2.8,2.7-4.8,6.3-4.9c-2,0.7-3.1,2-3.1,3.7c0,5.7,10.9,2.1,10.9,9.8
								c0,3.4-2.7,5.7-6.7,5.8C10.2,16.8,11.3,15.2,11.3,13.2L11.3,13.2z"/>
						</g>
					</g>
					<g id="Fill-16">
						<path class="st2" d="M89.3-1.4v18.7c-1.3-0.1-2.5-0.1-3.8,0c0-2.8,0.1-5.6,0.1-8.5l-7.6-1l7.6-1.1c0-2.7,0-5.4-0.1-8.1
							C86.8-1.3,88-1.3,89.3-1.4L89.3-1.4z M73.4-1.4c1.3,0.1,2.5,0.1,3.8,0c-0.1,6.2-0.1,12.4,0,18.7c-1.3-0.1-2.5-0.1-3.8,0V-1.4z
							"/>
					</g>
					<g id="Fill-18">
						<path class="st2" d="M106.6-1.4V3c-1.3-1.6-2.7-3-4.3-4.4H106.6z M97.2,17.3V-1.4h3.8v18.7C99.7,17.2,98.5,17.2,97.2,17.3
							L97.2,17.3z M91.7-1.4H96C94.4,0,92.9,1.5,91.7,3V-1.4z"/>
					</g>
					<g id="Group-22" transform="translate(106.386400, 0.000000)">
						<g id="Clip-21">
						</g>
						<defs>
							
								<filter id="Adobe_OpacityMaskFilter_00000101826178246485266200000017634405360580242318_" filterUnits="userSpaceOnUse" x="0.5" y="-1.6" width="19.8" height="19.2">
								<feColorMatrix  type="matrix" values="1 0 0 0 0  0 1 0 0 0  0 0 1 0 0  0 0 0 1 0"/>
							</filter>
						</defs>
						
							<mask maskUnits="userSpaceOnUse" x="0.5" y="-1.6" width="19.8" height="19.2" id="mask-6_00000015316457165158716930000009780315074024890555_">
							<g style="filter:url(#Adobe_OpacityMaskFilter_00000101826178246485266200000017634405360580242318_);">
								<polygon id="path-5_00000098907983376948402090000002550339025126823313_" class="st2" points="0.5,-1.6 20.2,-1.6 
									20.2,17.6 0.5,17.6 								"/>
							</g>
						</mask>
						<g id="Fill-20" class="st9">
							<path class="st2" d="M16.3,8c0-5.2-1.8-8.6-5-9.6c5,0,8.9,4.2,8.9,9.6s-3.9,9.6-8.9,9.6C14.6,16.6,16.3,13,16.3,8 M0.5,8
								c0-5.4,3.9-9.6,8.9-9.6c-3.3,1-5,4.6-5,9.6c0,5.2,1.8,8.6,5,9.6C4.4,17.6,0.5,13.3,0.5,8"/>
						</g>
					</g>
					<g id="Group-25" transform="translate(127.753800, 0.000000)">
						<g id="Clip-24">
						</g>
						<defs>
							
								<filter id="Adobe_OpacityMaskFilter_00000097466927485492962010000008566731083775435198_" filterUnits="userSpaceOnUse" x="0.5" y="-1.6" width="14.1" height="19.2">
								<feColorMatrix  type="matrix" values="1 0 0 0 0  0 1 0 0 0  0 0 1 0 0  0 0 0 1 0"/>
							</filter>
						</defs>
						
							<mask maskUnits="userSpaceOnUse" x="0.5" y="-1.6" width="14.1" height="19.2" id="mask-8_00000001660506822040119700000006057247232860673430_">
							<g style="filter:url(#Adobe_OpacityMaskFilter_00000097466927485492962010000008566731083775435198_);">
								<polygon id="path-7_00000053517071371291382200000010305254822473265832_" class="st2" points="0.5,-1.6 14.6,-1.6 
									14.6,17.6 0.5,17.6 								"/>
							</g>
						</mask>
						<g id="Fill-23" class="st11">
							<path class="st2" d="M13.5-1.2v4l-5-4.4C10.3-1.4,12-1.2,13.5-1.2L13.5-1.2z M0.5,12.7c1.6,1.8,3.4,3.4,5.5,4.9l-5.5-0.7
								V12.7z M11.3,13.2c0-6.1-10.8-2.7-10.8-9.9c0-2.8,2.7-4.8,6.3-4.9c-2,0.7-3.1,2-3.1,3.7c0,5.7,10.9,2.1,10.9,9.8
								c0,3.4-2.7,5.7-6.7,5.8C10.2,16.8,11.3,15.2,11.3,13.2L11.3,13.2z"/>
						</g>
					</g>
					<g id="Fill-26">
						<path class="st2" d="M160.5-1.4v18.7c-1.3-0.1-2.5-0.1-3.8,0c0-2.8,0.1-5.6,0.1-8.5l-7.6-1l7.6-1.1c0-2.7,0-5.4-0.1-8.1
							C158-1.3,159.3-1.3,160.5-1.4L160.5-1.4z M144.7-1.4c1.3,0.1,2.5,0.1,3.8,0c-0.1,6.2-0.1,12.4,0,18.7c-1.3-0.1-2.5-0.1-3.8,0
							V-1.4z"/>
					</g>
					<g id="Fill-28">
						<path class="st2" d="M164.5,5.5c1.5-0.2,3.3-0.8,4-2.1c0,1,0,1.6,0,2.5v11.4c-1.3-0.2-2.7-0.2-4,0V5.5z"/>
					</g>
					<g id="Group-32" transform="translate(163.450100, 0.000000)">
						<g id="Clip-31">
						</g>
						<defs>
							
								<filter id="Adobe_OpacityMaskFilter_00000033365641088977921630000001737215865979486909_" filterUnits="userSpaceOnUse" x="0.5" y="-1.6" width="5.2" height="5.2">
								<feColorMatrix  type="matrix" values="1 0 0 0 0  0 1 0 0 0  0 0 1 0 0  0 0 0 1 0"/>
							</filter>
						</defs>
						
							<mask maskUnits="userSpaceOnUse" x="0.5" y="-1.6" width="5.2" height="5.2" id="mask-10_00000101068034451968392250000012587369860936290707_">
							<g style="filter:url(#Adobe_OpacityMaskFilter_00000033365641088977921630000001737215865979486909_);">
								<polygon id="path-9_00000169547813821137507400000010908200915124086955_" class="st2" points="0.5,-1.6 5.7,-1.6 5.7,3.6 
									0.5,3.6 								"/>
							</g>
						</mask>
						<g id="Fill-30" class="st13">
							<path class="st2" d="M4.3-0.3C3.9-0.7,3.5-1.1,3.1-1.6c-0.5,0.6-0.8,1-1.2,1.4C1.4,0.1,1,0.5,0.5,1c0.5,0.5,1,0.9,1.4,1.2
								C2.2,2.6,2.6,3,3.1,3.6c0.5-0.6,0.8-1,1.2-1.4C4.7,1.8,5.1,1.4,5.7,1C5.1,0.5,4.7,0.1,4.3-0.3"/>
						</g>
					</g>
				</g>
			</g>
		</g>
	</g>
</g>
</svg>
