<?xml version="1.0" encoding="UTF-8"?>
<svg width="200px" height="16px" viewBox="0 0 200 16" version="1.1" xmlns="http://www.w3.org/2000/svg" xmlns:xlink="http://www.w3.org/1999/xlink">
    <title>Logo_HistoryOfBitcoin@2x</title>
    <g id="Symbols" stroke="none" stroke-width="1" fill="none" fill-rule="evenodd">
        <g id="nav/History-White" transform="translate(-76.000000, -32.000000)" fill="#FFFFFF" fill-rule="nonzero">
            <g id="Logo_HistoryOfBitcoin" transform="translate(76.358253, 32.000000)">
                <path d="M9.2658876,6.38460601 L1.5257084,6.38460601 L1.5257084,0.393409613 L0,0.393409613 L0,13.5107806 L1.5257084,13.5107806 L1.5257084,7.68704001 L9.2658876,7.68704001 L9.2658876,13.5107806 L10.791596,13.5107806 L10.791596,0.393409613 L9.2658876,0.393409613 L9.2658876,6.38460601 Z M21.9477408,0.393409613 L14.5610794,0.393409613 L14.5610794,1.69584361 L17.500859,1.69584361 L17.500859,12.2083466 L14.5610794,12.2083466 L14.5610794,13.5107806 L21.9477408,13.5107806 L21.9477408,12.2083466 L19.0265674,12.2083466 L19.0265674,1.69584361 L21.9477408,1.69584361 L21.9477408,0.393409613 Z M35.1133552,10.198877 C35.1133552,7.46376561 32.1363632,6.75673001 29.5687076,5.95666341 C27.4103884,5.26823401 26.256804,4.78447281 26.256804,3.40761401 C26.256804,1.97493661 27.5778442,1.50978161 29.3826456,1.50978161 C31.3921152,1.50978161 33.048067,2.49591021 33.048067,4.71004801 L34.5737754,4.71004801 C34.5737754,2.57033501 33.2527352,0.207347613 29.3826456,0.207347613 C26.1451668,0.207347613 24.7310956,1.43535681 24.7310956,3.44482641 C24.7310956,5.77060141 26.6103218,6.49624321 29.1965836,7.25909741 C31.280478,7.89170821 33.5876468,8.30104461 33.5876468,10.2733018 C33.5876468,11.8548288 32.303819,12.3944086 30.071075,12.3944086 C27.3173574,12.3944086 25.6614056,11.687373 25.6614056,8.59874381 L24.1356972,8.59874381 C24.1356972,11.6687668 25.4939498,13.6968426 30.071075,13.6968426 C33.9411646,13.6968426 35.1133552,12.152528 35.1133552,10.198877 Z M35.7942094,0.393409613 L35.7942094,1.69584361 L40.3527284,1.69584361 L40.3527284,13.5107806 L41.8784368,13.5107806 L41.8784368,1.69584361 L46.4369558,1.69584361 L46.4369558,0.393409613 L35.7942094,0.393409613 Z M46.559624,6.94279201 C46.559624,10.7756692 48.8295804,13.6968426 52.69967,13.6968426 C56.5325472,13.6968426 58.8025036,10.7756692 58.8025036,6.94279201 C58.8025036,3.12852101 56.5325472,0.207347613 52.69967,0.207347613 C48.8295804,0.207347613 46.559624,3.12852101 46.559624,6.94279201 Z M48.0853324,6.94279201 C48.0853324,3.81695041 49.5924346,1.50978161 52.69967,1.50978161 C55.7882992,1.50978161 57.2767952,3.81695041 57.2767952,6.94279201 C57.2767952,10.0872398 55.7882992,12.3944086 52.69967,12.3944086 C49.5924346,12.3944086 48.0853324,10.0872398 48.0853324,6.94279201 Z M63.7999962,13.5107806 L63.7999962,8.24522601 L70.386591,8.24522601 L70.386591,13.5107806 L71.9122994,13.5107806 L71.9122994,8.58013761 C71.9122994,7.89170821 71.6146002,7.59400901 70.8703522,7.59400901 L69.3074314,7.59400901 L69.3074314,7.14746021 C70.7215026,6.90557961 71.7448436,6.03108821 71.7448436,4.05883101 C71.7448436,1.11905141 69.7539802,0.393409613 66.6281386,0.393409613 L62.2742878,0.393409613 L62.2742878,13.5107806 L63.7999962,13.5107806 Z M63.7999962,1.69584361 L66.6281386,1.69584361 C68.8608826,1.69584361 70.2191352,1.90051181 70.2191352,4.31931781 C70.2191352,6.71951761 68.8608826,6.94279201 66.6281386,6.94279201 L63.7999962,6.94279201 L63.7999962,1.69584361 Z M78.2680446,6.79394241 L78.2680446,7.85449581 L77.840102,7.85449581 L77.840102,6.79394241 L74.1746806,0.393409613 L72.537335,0.393409613 L77.281916,8.61735001 L77.281916,13.5107806 L78.8262306,13.5107806 L78.8262306,8.61735001 L83.5708116,0.393409613 L81.933466,0.393409613 L78.2680446,6.79394241 Z M118.837799,13.5107806 C122.01946,13.5107806 124.010323,12.6735016 124.010323,10.0314212 C124.010323,7.68704001 122.428796,6.86836721 120.419326,6.83115481 L120.419326,6.38460601 C121.777579,6.29157501 123.042801,5.51011461 123.042801,3.61228221 C123.042801,1.02602041 121.219393,0.393409613 118.00052,0.393409613 L114.521161,0.393409613 L114.521161,13.5107806 L118.837799,13.5107806 Z M116.046869,1.69584361 L118.056339,1.69584361 C120.196052,1.69584361 121.517092,1.84469321 121.517092,3.87276901 C121.517092,5.71478281 120.196052,6.03108821 118.056339,6.03108821 L116.046869,6.03108821 L116.046869,1.69584361 Z M116.046869,7.33352221 L118.912224,7.33352221 C121.126362,7.33352221 122.484615,7.85449581 122.484615,9.77093441 C122.484615,11.8362226 121.126362,12.2083466 118.912224,12.2083466 L116.046869,12.2083466 L116.046869,7.33352221 Z M133.640759,0.393409613 L126.254098,0.393409613 L126.254098,1.69584361 L129.193878,1.69584361 L129.193878,12.2083466 L126.254098,12.2083466 L126.254098,13.5107806 L133.640759,13.5107806 L133.640759,12.2083466 L130.719586,12.2083466 L130.719586,1.69584361 L133.640759,1.69584361 L133.640759,0.393409613 Z M137.317212,0.393409613 L137.317212,1.69584361 L141.875731,1.69584361 L141.875731,13.5107806 L143.401439,13.5107806 L143.401439,1.69584361 L147.959958,1.69584361 L147.959958,0.393409613 L137.317212,0.393409613 Z M148.082626,6.94279201 C148.082626,10.7756692 150.371189,13.6968426 154.222672,13.6968426 C157.571788,13.6968426 159.76732,11.687373 160.15805,8.43128801 L158.632342,8.43128801 C158.334643,10.9245188 156.790328,12.3944086 154.222672,12.3944086 C151.171256,12.3944086 149.608335,10.1244522 149.608335,6.94279201 C149.608335,3.77973801 151.171256,1.50978161 154.222672,1.50978161 C156.790328,1.50978161 158.334643,2.96106521 158.632342,5.45429601 L160.15805,5.45429601 C159.76732,2.21681721 157.571788,0.207347613 154.222672,0.207347613 C150.371189,0.207347613 148.082626,3.12852101 148.082626,6.94279201 Z M163.369348,6.94279201 C163.369348,10.7756692 165.639304,13.6968426 169.509394,13.6968426 C173.342271,13.6968426 175.612227,10.7756692 175.612227,6.94279201 C175.612227,3.12852101 173.342271,0.207347613 169.509394,0.207347613 C165.639304,0.207347613 163.369348,3.12852101 163.369348,6.94279201 Z M164.895056,6.94279201 C164.895056,3.81695041 166.402158,1.50978161 169.509394,1.50978161 C172.598023,1.50978161 174.086519,3.81695041 174.086519,6.94279201 C174.086519,10.0872398 172.598023,12.3944086 169.509394,12.3944086 C166.402158,12.3944086 164.895056,10.0872398 164.895056,6.94279201 Z M184.163504,0.393409613 L176.776843,0.393409613 L176.776843,1.69584361 L179.716622,1.69584361 L179.716622,12.2083466 L176.776843,12.2083466 L176.776843,13.5107806 L184.163504,13.5107806 L184.163504,12.2083466 L181.242331,12.2083466 L181.242331,1.69584361 L184.163504,1.69584361 L184.163504,0.393409613 Z M189.477302,13.5107806 L189.477302,1.91911801 L189.235421,0.821352213 L189.663364,0.821352213 L196.19414,13.5107806 L199.282769,13.5107806 L199.282769,0.393409613 L197.757061,0.393409613 L197.757061,11.9850722 L197.998942,13.082838 L197.570999,13.082838 L191.040223,0.393409613 L187.951594,0.393409613 L187.951594,13.5107806 L189.477302,13.5107806 Z M102.930847,1.816 C103.038847,1.72 103.211847,1.671 103.450847,1.671 L106.238847,1.671 L106.544847,0 L103.936847,0 C103.151847,0 102.499847,0.23 101.982847,0.69 C101.465847,1.151 101.144847,1.745 101.019847,2.472 L100.390847,6.032 L100.328847,6.032 L96.9688474,6.032 L96.6788474,7.624 L100.021847,7.624 L100.109847,7.624 L99.0928474,13.388 C99.0588474,13.57 98.9928474,13.704 98.8968474,13.789 C98.7998474,13.874 98.6538474,13.917 98.4608474,13.917 L95.5318474,13.917 L95.2278474,15.588 L98.0778474,15.588 C98.8058474,15.588 99.4088474,15.375 99.8858474,14.949 C100.363847,14.522 100.659847,13.974 100.772847,13.303 L101.774847,7.624 L105.155847,7.624 L105.445847,6.032 L102.055847,6.032 L102.716847,2.285 C102.751847,2.069 102.822847,1.913 102.930847,1.816 M92.8799474,7.0891 L92.6799474,8.2521 C92.5109474,9.1371 92.2399474,9.7631 91.8719474,10.1331 C91.5009474,10.5031 90.9539474,10.6881 90.2269474,10.6881 L90.1179474,10.6881 C88.9539474,10.6881 88.3729474,10.1481 88.3729474,9.0701 C88.3729474,8.8151 88.3969474,8.5611 88.4449474,8.3061 L88.6629474,7.1441 C88.8089474,6.3071 89.0689474,5.7081 89.4449474,5.3441 C89.8199474,4.9811 90.3719474,4.7991 91.0989474,4.7991 L91.2079474,4.7991 C92.3709474,4.7991 92.9529474,5.3261 92.9529474,6.3801 C92.9529474,6.6231 92.9279474,6.8591 92.8799474,7.0891 M93.7949474,4.1361 C93.2039474,3.5791 92.3849474,3.3001 91.3389474,3.3001 L91.2369474,3.3001 C90.0769474,3.3001 89.1359474,3.6111 88.4139474,4.2301 C87.6919474,4.8501 87.2229474,5.7741 87.0069474,7.0021 L86.7849474,8.2301 C86.7279474,8.5941 86.6999474,8.9011 86.6999474,9.1501 C86.6999474,10.0941 86.9959474,10.8361 87.5869474,11.3761 C88.1779474,11.9171 88.9909474,12.1861 90.0259474,12.1861 L90.1279474,12.1861 C91.2999474,12.1861 92.2489474,11.8711 92.9769474,11.2401 C93.7039474,10.6091 94.1769474,9.6681 94.3919474,8.4171 L94.5969474,7.1891 C94.6539474,6.8711 94.6819474,6.6041 94.6819474,6.3881 C94.6819474,5.4441 94.3859474,4.6931 93.7949474,4.1361" id="HistoryOfBitcoin"></path>
            </g>
        </g>
    </g>
</svg>