<?xml version="1.0" standalone="no"?>
<!DOCTYPE svg PUBLIC "-//W3C//DTD SVG 20010904//EN"
 "http://www.w3.org/TR/2001/REC-SVG-20010904/DTD/svg10.dtd">
<svg version="1.0" xmlns="http://www.w3.org/2000/svg"
 width="700.000000pt" height="700.000000pt" viewBox="0 0 700.000000 700.000000"
 preserveAspectRatio="xMidYMid meet">
<metadata>
Created by potrace 1.14, written by Peter Selinger 2001-2017
</metadata>
<g transform="translate(0.000000,700.000000) scale(0.100000,-0.100000)"
fill="#000000" stroke="none">
<path d="M0 3500 l0 -3500 3500 0 3500 0 0 3500 0 3500 -3500 0 -3500 0 0
-3500z m3010 2390 l0 -270 230 0 230 0 0 270 0 270 140 0 140 0 0 -275 c0
-212 3 -276 13 -279 6 -2 50 -9 97 -16 377 -55 740 -301 866 -586 49 -112 66
-191 71 -350 8 -220 -18 -339 -118 -534 -122 -238 -363 -433 -596 -481 -35 -7
-63 -18 -63 -25 0 -6 30 -16 68 -22 172 -29 389 -115 516 -206 94 -67 203
-190 274 -309 106 -176 142 -308 142 -522 0 -149 -19 -263 -64 -391 -52 -144
-108 -234 -214 -345 -177 -185 -369 -287 -663 -353 -93 -20 -270 -46 -319 -46
-7 0 -10 -88 -10 -265 l0 -265 -140 0 -140 0 0 265 0 265 -227 -2 -228 -3 -3
-263 -2 -262 -140 0 -140 0 -2 263 -3 262 -292 3 -293 2 0 2100 0 2100 295 0
295 0 0 270 0 270 140 0 140 0 0 -270z"/>
<path d="M2550 4500 l0 -740 486 0 c388 0 508 3 591 16 400 59 644 244 716
544 95 395 -99 744 -483 869 -140 46 -211 51 -777 51 l-533 0 0 -740z"/>
<path d="M2550 2596 l0 -786 549 0 c578 0 688 6 862 45 275 61 481 201 572
388 56 115 71 190 70 357 0 242 -46 364 -189 507 -69 69 -97 89 -185 132 -108
52 -223 89 -369 117 -72 14 -180 18 -697 21 l-613 4 0 -785z"/>
</g>
</svg>
